<svg width="28" height="28" viewBox="0 0 28 28" fill="none" xmlns="http://www.w3.org/2000/svg">
<path d="M10.4997 25.6663H17.4997C23.333 25.6663 25.6663 23.333 25.6663 17.4997V10.4997C25.6663 4.66634 23.333 2.33301 17.4997 2.33301H10.4997C4.66634 2.33301 2.33301 4.66634 2.33301 10.4997V17.4997C2.33301 23.333 4.66634 25.6663 10.4997 25.6663Z" stroke="#E58E1A" stroke-width="1.5" stroke-linecap="round" stroke-linejoin="round"/>
<path d="M13.9993 18.0827C16.2545 18.0827 18.0827 16.2545 18.0827 13.9993C18.0827 11.7442 16.2545 9.91602 13.9993 9.91602C11.7442 9.91602 9.91602 11.7442 9.91602 13.9993C9.91602 16.2545 11.7442 18.0827 13.9993 18.0827Z" stroke="#E58E1A" stroke-width="1.5" stroke-linecap="round" stroke-linejoin="round"/>
<path d="M20.5752 8.16602H20.5868" stroke="#E58E1A" stroke-width="2" stroke-linecap="round" stroke-linejoin="round"/>
</svg>
